<svg width="25" height="16" viewBox="0 0 25 16" fill="none" xmlns="http://www.w3.org/2000/svg">
<path d="M24.0839 0H0.916076C0.673117 0 0.44011 0.0982273 0.268312 0.273073C0.096515 0.447919 0 0.685061 0 0.932331V15.0677C0 15.3149 0.096515 15.5521 0.268312 15.7269C0.44011 15.9018 0.673117 16 0.916076 16H24.0839C24.3269 16 24.5599 15.9018 24.7317 15.7269C24.9035 15.5521 25 15.3149 25 15.0677V0.932331C25 0.685061 24.9035 0.447919 24.7317 0.273073C24.5599 0.0982273 24.3269 0 24.0839 0ZM11.1702 3.9764C11.1702 3.24198 11.7656 2.64662 12.5 2.64662C13.2344 2.64662 13.8298 3.24198 13.8298 3.9764V4.0236C13.8298 4.75802 13.2344 5.35338 12.5 5.35338C11.7656 5.35338 11.1702 4.75802 11.1702 4.0236V3.9764ZM11.1702 7.9764C11.1702 7.24198 11.7656 6.64662 12.5 6.64662C13.2344 6.64662 13.8298 7.24198 13.8298 7.9764V8.0236C13.8298 8.75802 13.2344 9.35338 12.5 9.35338C11.7656 9.35338 11.1702 8.75802 11.1702 8.0236V7.9764ZM7.23995 3.97641C7.23995 3.24198 7.83532 2.64662 8.56974 2.64662C9.30416 2.64662 9.89953 3.24198 9.89953 3.97641V4.0236C9.89953 4.75802 9.30416 5.35338 8.56974 5.35338C7.83532 5.35338 7.23995 4.75802 7.23995 4.0236V3.97641ZM7.23995 7.97641C7.23995 7.24198 7.83532 6.64662 8.56974 6.64662C9.30416 6.64662 9.89953 7.24198 9.89953 7.97641V8.0236C9.89953 8.75802 9.30416 9.35338 8.56974 9.35338C7.83532 9.35338 7.23995 8.75802 7.23995 8.0236V7.97641ZM5.93972 12.0236C5.93972 12.758 5.34435 13.3534 4.60993 13.3534C3.87551 13.3534 3.28014 12.758 3.28014 12.0236V11.9764C3.28014 11.242 3.87551 10.6466 4.60993 10.6466C5.34435 10.6466 5.93972 11.242 5.93972 11.9764V12.0236ZM5.93972 8.0236C5.93972 8.75802 5.34435 9.35338 4.60993 9.35338C3.87551 9.35338 3.28014 8.75802 3.28014 8.0236V7.9764C3.28014 7.24198 3.87551 6.64662 4.60993 6.64662C5.34435 6.64662 5.93972 7.24198 5.93972 7.9764V8.0236ZM5.93972 4.0236C5.93972 4.75802 5.34435 5.35338 4.60993 5.35338C3.87551 5.35338 3.28014 4.75802 3.28014 4.0236V3.9764C3.28014 3.24198 3.87551 2.64662 4.60993 2.64662C5.34435 2.64662 5.93972 3.24198 5.93972 3.9764V4.0236ZM17.76 12.0301C17.76 12.7775 17.1541 13.3835 16.4067 13.3835H8.59334C7.84588 13.3835 7.23995 12.7775 7.23995 12.0301C7.23995 11.2826 7.84588 10.6767 8.59334 10.6767H16.4067C17.1541 10.6767 17.76 11.2826 17.76 12.0301ZM17.76 8.05367C17.76 8.78809 17.1647 9.38346 16.4303 9.38346C15.6958 9.38346 15.1005 8.78809 15.1005 8.05367V8.00648C15.1005 7.27206 15.6958 6.67669 16.4303 6.67669C17.1647 6.67669 17.76 7.27206 17.76 8.00648V8.05367ZM17.76 4.05367C17.76 4.78809 17.1647 5.38346 16.4303 5.38346C15.6958 5.38346 15.1005 4.78809 15.1005 4.05367V4.00648C15.1005 3.27206 15.6958 2.67669 16.4303 2.67669C17.1647 2.67669 17.76 3.27206 17.76 4.00648V4.05367ZM21.6903 12.0236C21.6903 12.758 21.0949 13.3534 20.3605 13.3534C19.6261 13.3534 19.0307 12.758 19.0307 12.0236V11.9764C19.0307 11.242 19.6261 10.6466 20.3605 10.6466C21.0949 10.6466 21.6903 11.242 21.6903 11.9764V12.0236ZM21.6903 8.0236C21.6903 8.75802 21.0949 9.35338 20.3605 9.35338C19.6261 9.35338 19.0307 8.75802 19.0307 8.0236V7.9764C19.0307 7.24198 19.6261 6.64662 20.3605 6.64662C21.0949 6.64662 21.6903 7.24198 21.6903 7.9764V8.0236ZM21.6903 4.0236C21.6903 4.75802 21.0949 5.35338 20.3605 5.35338C19.6261 5.35338 19.0307 4.75802 19.0307 4.0236V3.9764C19.0307 3.24198 19.6261 2.64662 20.3605 2.64662C21.0949 2.64662 21.6903 3.24198 21.6903 3.9764V4.0236Z" fill="#191A1B"/>
</svg>
