<svg width="65" height="25" viewBox="0 0 65 25" fill="none" xmlns="http://www.w3.org/2000/svg">
<g clip-path="url(#clip0)">
<path d="M33.5583 8.42043L36.6507 8.2217C36.7212 8.72438 36.8506 9.09847 37.0622 9.36734C37.4032 9.78819 37.8736 9.99861 38.4967 9.99861C38.9553 9.99861 39.3198 9.8934 39.5668 9.67129C39.8019 9.49593 39.943 9.21537 39.943 8.92311C39.943 8.64255 39.8137 8.37367 39.5903 8.19832C39.3551 7.9879 38.8025 7.77747 37.9324 7.59043C36.5096 7.27479 35.4866 6.85395 34.8869 6.3162C34.2873 5.81352 33.9463 5.07703 33.9698 4.29379C33.9698 3.75604 34.1344 3.21829 34.4401 2.77406C34.7929 2.27138 35.275 1.87392 35.8511 1.6518C36.4743 1.38293 37.3444 1.24265 38.438 1.24265C39.7784 1.24265 40.8014 1.48814 41.5069 1.99082C42.2124 2.48181 42.6357 3.27674 42.765 4.36393L39.7079 4.53928C39.6255 4.07168 39.4609 3.73266 39.1905 3.51055C38.92 3.28843 38.5673 3.18322 38.1087 3.18322C37.7325 3.18322 37.4503 3.26505 37.2621 3.41702C37.0857 3.55731 36.9682 3.76773 36.9799 4.00153C36.9799 4.17689 37.074 4.34055 37.2151 4.44576C37.3679 4.58605 37.7325 4.71464 38.3086 4.83154C39.7314 5.13548 40.7426 5.43943 41.3658 5.75507C41.989 6.0707 42.4358 6.45648 42.7062 6.9124C42.9884 7.38001 43.1295 7.91776 43.1178 8.4672C43.1178 9.12185 42.9296 9.7765 42.5534 10.3259C42.1653 10.8988 41.6245 11.343 40.9895 11.6119C40.3193 11.9041 39.4727 12.0561 38.4615 12.0561C36.6742 12.0561 35.4396 11.7171 34.7458 11.0274C34.0521 10.3376 33.6406 9.47255 33.5583 8.42043ZM0.740774 11.8807V1.42969H6.16136C7.16082 1.42969 7.93687 1.51152 8.46599 1.68687C8.98336 1.85054 9.44193 2.18955 9.74765 2.64547C10.0886 3.14815 10.2533 3.73266 10.2415 4.34055C10.2768 5.36929 9.74765 6.35127 8.84226 6.86564C8.48951 7.06437 8.10148 7.20465 7.7017 7.27479C7.99566 7.35663 8.28962 7.49691 8.5483 7.66057C8.74819 7.82423 8.91281 8.01128 9.06567 8.21001C9.24204 8.40874 9.3949 8.63086 9.52424 8.86466L11.0999 11.8924H7.40774L5.66751 8.67762C5.4441 8.26846 5.25597 7.99959 5.0796 7.87099C4.84443 7.70733 4.56223 7.6255 4.28003 7.6255H3.99783V11.869H0.740774V11.8807ZM3.99783 5.66154H5.37355C5.66751 5.63816 5.94971 5.5914 6.23191 5.52126C6.44356 5.48619 6.63169 5.36929 6.76104 5.19394C7.07851 4.77309 7.03148 4.17689 6.64345 3.81449C6.4318 3.63914 6.02026 3.54562 5.43234 3.54562H3.99783V5.66154ZM0 20.8354L3.09244 20.6367C3.16299 21.1394 3.29233 21.5135 3.50398 21.7823C3.83321 22.2032 4.3153 22.4253 4.9385 22.4253C5.39707 22.4253 5.76158 22.3201 6.0085 22.098C6.24367 21.9109 6.38477 21.6421 6.38477 21.3498C6.38477 21.0692 6.25543 20.8004 6.03202 20.625C5.79685 20.4146 5.24421 20.2042 4.36234 20.0171C2.93958 19.7015 1.91661 19.2806 1.31693 18.7429C0.717258 18.2402 0.376266 17.5037 0.399783 16.7205C0.399783 16.1827 0.564399 15.645 0.870116 15.2008C1.22287 14.6981 1.70496 14.3006 2.28111 14.0785C2.90431 13.8096 3.77442 13.6693 4.86795 13.6693C6.20839 13.6693 7.23137 13.9148 7.93687 14.4175C8.64237 14.9202 9.05391 15.7034 9.18325 16.7906L6.12609 16.966C6.04378 16.4984 5.87916 16.1594 5.60872 15.9372C5.35004 15.7151 4.98553 15.6099 4.52695 15.6216C4.15069 15.6216 3.86849 15.7034 3.68035 15.8671C3.49222 16.0074 3.3864 16.2178 3.39815 16.4516C3.39815 16.627 3.49222 16.7906 3.63332 16.8958C3.78618 17.0361 4.15069 17.1647 4.72685 17.2816C6.1496 17.5856 7.16082 17.8895 7.78401 18.2051C8.4072 18.5208 8.85402 18.9066 9.12446 19.3625C9.40666 19.8301 9.54776 20.3678 9.54776 20.9056C9.54776 21.5602 9.34787 22.2032 8.98336 22.7526C8.59533 23.3255 8.05445 23.7697 7.4195 24.0386C6.74928 24.3308 5.90268 24.4828 4.89146 24.4828C3.1042 24.4828 1.86957 24.1438 1.17583 23.454C0.482091 22.7526 0.0940666 21.8876 0 20.8354H0Z" fill="white"/>
<path d="M15.6386 20.0171L18.4841 20.8705C18.3312 21.5836 18.0137 22.2616 17.5787 22.8578C17.1789 23.3839 16.6498 23.793 16.0501 24.0619C15.4387 24.3308 14.6626 24.4711 13.722 24.4711C12.5814 24.4711 11.6407 24.3074 10.9235 23.9801C10.1945 23.6528 9.57127 23.0682 9.04214 22.2382C8.51302 21.4082 8.25433 20.3444 8.25433 19.0468C8.25433 17.3167 8.71291 15.984 9.64182 15.0604C10.5707 14.1369 11.8759 13.6693 13.5691 13.6693C14.8978 13.6693 15.9325 13.9382 16.6968 14.4642C17.4493 15.002 18.0137 15.8203 18.39 16.9192L15.521 17.5505C15.4504 17.305 15.3446 17.0595 15.2035 16.849C15.0271 16.6036 14.8037 16.4165 14.5333 16.2762C14.2628 16.1359 13.9571 16.0775 13.6514 16.0775C12.9106 16.0775 12.3462 16.3698 11.9582 16.966C11.6642 17.3985 11.5114 18.0882 11.5114 19.0234C11.5114 20.1808 11.6878 20.9757 12.0405 21.4082C12.3933 21.8408 12.8871 22.0512 13.5338 22.0512C14.157 22.0512 14.6273 21.8758 14.9448 21.5368C15.2623 21.1744 15.4975 20.6717 15.6386 20.0171ZM22.282 13.8447H25.5273V17.5037H29.0783V13.8447H32.3471V24.2957H29.0783V20.0639H25.5273V24.2957H22.282V13.8447Z" fill="white"/>
<path d="M31.9003 19.0702C31.9003 17.3634 32.3824 16.0308 33.3348 15.0839C34.2873 14.137 35.6277 13.6577 37.3327 13.6577C39.0847 13.6577 40.4251 14.1253 41.3775 15.0605C42.33 15.9957 42.8003 17.305 42.8003 18.9884C42.8003 20.2159 42.5886 21.2095 42.1771 21.9928C41.7773 22.7643 41.1541 23.3956 40.3898 23.8164C39.602 24.249 38.6261 24.4711 37.462 24.4711C36.2744 24.4711 35.2985 24.2841 34.5224 23.91C33.7229 23.5125 33.0644 22.8929 32.6293 22.1331C32.1473 21.3147 31.9003 20.2977 31.9003 19.0702ZM35.1456 19.0819C35.1456 20.134 35.3455 20.8939 35.7335 21.3615C36.1216 21.8174 36.6625 22.0512 37.3444 22.0512C38.0382 22.0512 38.5791 21.8291 38.9671 21.3732C39.3551 20.9173 39.5432 20.1106 39.5432 18.9416C39.5432 17.9597 39.3434 17.2349 38.9436 16.7906C38.5438 16.3347 38.0029 16.1126 37.3209 16.1126C36.7212 16.0892 36.1451 16.3464 35.7453 16.8023C35.3455 17.2582 35.1456 18.0181 35.1456 19.0819ZM46.1279 19.0702C46.1279 17.3634 46.61 16.0308 47.5624 15.0839C48.5148 14.137 49.8553 13.6577 51.5602 13.6577C53.3122 13.6577 54.6644 14.1253 55.6051 15.0605C56.5458 15.9957 57.0279 17.305 57.0279 18.9884C57.0279 20.2159 56.8162 21.2095 56.4047 21.9928C56.0049 22.7643 55.3817 23.3956 54.6174 23.8164C53.8296 24.249 52.8537 24.4711 51.6896 24.4711C50.502 24.4711 49.5261 24.2841 48.75 23.91C47.9504 23.5125 47.292 22.8929 46.8569 22.1331C46.3748 21.3147 46.1279 20.2977 46.1279 19.0702ZM49.3732 19.0819C49.3732 20.134 49.5731 20.8939 49.9611 21.3615C50.3491 21.8174 50.89 22.0512 51.572 22.0512C52.2657 22.0512 52.8066 21.8291 53.1947 21.3732C53.5827 20.9173 53.7708 20.1106 53.7708 18.9416C53.7708 17.9597 53.5709 17.2349 53.1711 16.7906C52.7714 16.3347 52.2305 16.1126 51.5485 16.1126C50.9488 16.0892 50.3609 16.3464 49.9729 16.8023C49.5731 17.2582 49.3732 18.0181 49.3732 19.0819Z" fill="white"/>
<path d="M56.6869 13.8447H59.9322V21.7239H65.0001V24.2957H56.6752V13.8447H56.6869Z" fill="white"/>
<path d="M53.0941 13.2431C56.3587 10.7916 57.3665 6.63721 55.345 3.96408C53.3235 1.29094 49.0383 1.11131 45.7737 3.56284C42.5091 6.01438 41.5014 10.1687 43.5229 12.8419C45.5444 15.515 49.8296 15.6946 53.0941 13.2431Z" stroke="white" stroke-width="0.589315" stroke-miterlimit="10"/>
<path d="M53.0941 13.2431C56.3587 10.7916 57.3665 6.63721 55.345 3.96408C53.3235 1.29094 49.0383 1.11131 45.7737 3.56284C42.5091 6.01438 41.5014 10.1687 43.5229 12.8419C45.5444 15.515 49.8296 15.6946 53.0941 13.2431Z" stroke="white" stroke-width="0.589315" stroke-miterlimit="10"/>
<path d="M46.1399 7.63717L47.3157 6.81885L48.762 8.86464C49.0089 9.19197 49.197 9.54267 49.3381 9.92845C49.4204 10.2207 49.3969 10.5363 49.2793 10.8169C49.1265 11.1676 48.8796 11.4599 48.5503 11.6703C48.1623 11.9392 47.8331 12.0911 47.5509 12.1379C47.2804 12.1847 46.9982 12.1379 46.7395 12.021C46.4573 11.8807 46.2104 11.682 46.0223 11.4248L47.0335 10.4896C47.1158 10.6182 47.2216 10.7351 47.3392 10.8286C47.4215 10.887 47.5156 10.9221 47.6214 10.9221C47.7037 10.9221 47.786 10.887 47.8448 10.8403C47.9624 10.7701 48.0447 10.6299 48.033 10.4896C47.9977 10.2908 47.9154 10.0921 47.786 9.94014L46.1399 7.63717ZM49.6674 8.93478L50.7374 8.09309C50.855 8.23337 51.0078 8.33858 51.1724 8.39703C51.4076 8.46717 51.6545 8.42041 51.8544 8.26844C51.9955 8.17492 52.1131 8.04632 52.1601 7.88266C52.2307 7.67224 52.1131 7.43843 51.9014 7.36829C51.8662 7.3566 51.8309 7.34491 51.7956 7.34491C51.6545 7.33322 51.4076 7.39167 51.0431 7.54365C50.4434 7.78914 49.9731 7.88266 49.6203 7.84759C49.2793 7.81252 48.9619 7.63717 48.7737 7.34491C48.6326 7.14618 48.5621 6.91237 48.5503 6.67857C48.5503 6.4097 48.6209 6.14082 48.7737 5.91871C48.9971 5.60307 49.2676 5.3342 49.5968 5.12377C50.0907 4.78476 50.5257 4.62109 50.902 4.62109C51.2783 4.62109 51.631 4.79645 51.9602 5.15884L50.902 5.98885C50.6903 5.71997 50.2906 5.66152 50.0201 5.87195L49.9848 5.90702C49.8673 5.97716 49.7849 6.08237 49.7379 6.21096C49.7026 6.30448 49.7262 6.4097 49.7849 6.49153C49.832 6.54998 49.9025 6.59674 49.9848 6.59674C50.0789 6.60843 50.2435 6.56167 50.4787 6.45646C51.0666 6.21096 51.5134 6.07068 51.8191 6.02392C52.0778 5.97716 52.3483 6.00054 52.5952 6.10575C52.8186 6.19927 53.0067 6.36293 53.1361 6.56167C53.3007 6.79547 53.3948 7.07604 53.4065 7.36829C53.4183 7.67224 53.336 7.96449 53.1713 8.22168C52.9597 8.53731 52.6893 8.80619 52.3718 9.01661C51.7251 9.46084 51.1959 9.64788 50.7726 9.57774C50.3141 9.5076 49.9378 9.2738 49.6674 8.93478Z" fill="white"/>
</g>
<defs>
<clipPath id="clip0">
<rect width="65" height="24" fill="white" transform="translate(0 0.471069)"/>
</clipPath>
</defs>
</svg>
