<svg width="16" height="16" viewBox="0 0 16 16" fill="none" xmlns="http://www.w3.org/2000/svg">
<path d="M7.46121 5.09389C6.13876 5.09389 5.07754 6.17144 5.07754 7.47756C5.07754 8.80001 6.15509 9.86123 7.46121 9.86123C8.78366 9.86123 9.84488 8.78368 9.84488 7.47756C9.84488 6.17144 8.78366 5.09389 7.46121 5.09389Z" fill="#191A1B"/>
<path d="M7.95102 0C3.55918 0 0 3.55918 0 7.95102C0 12.3429 3.55918 15.902 7.95102 15.902C12.3429 15.902 15.902 12.3429 15.902 7.95102C15.902 3.55918 12.3429 0 7.95102 0ZM11.8204 12.0327C11.7061 12.1469 11.5265 12.2122 11.3306 12.2122C11.1347 12.2122 10.9714 12.1469 10.8408 12.0327L9.33877 10.5306L9.19184 10.6122C8.65306 10.9061 8.06531 11.0694 7.46122 11.0694C5.48571 11.0694 3.88571 9.46939 3.88571 7.49388C3.88571 5.51837 5.48571 3.91837 7.46122 3.91837C9.43673 3.91837 11.0367 5.51837 11.0367 7.49388C11.0367 8.19592 10.8408 8.86531 10.449 9.45306L10.351 9.61633L11.8367 11.102C11.951 11.2327 12.0327 11.3959 12.0327 11.5755C12.0163 11.7388 11.951 11.902 11.8204 12.0327Z" fill="#191A1B"/>
</svg>
