<svg width="22" height="22" viewBox="0 0 22 22" fill="none" xmlns="http://www.w3.org/2000/svg">
<circle cx="11" cy="11" r="11" fill="#EB3D3E"/>
<path d="M11 8.11554C9.4111 8.11554 8.11554 9.4111 8.11554 11C8.11554 12.5889 9.4111 13.8844 11 13.8844C12.5889 13.8844 13.8844 12.5889 13.8844 11C13.8844 9.4111 12.5889 8.11554 11 8.11554Z" fill="black"/>
<path d="M11 0C4.91333 0 0 4.91333 0 11C0 17.0867 4.91333 22 11 22C17.0867 22 22 17.0867 22 11C22 4.91333 17.0867 0 11 0ZM17.4778 11.7333C17.4778 11.9044 17.3556 12.0511 17.1844 12.1L15.5222 12.4667C15.4489 12.7111 15.3511 12.9311 15.2289 13.1511L16.1578 14.5933C16.2556 14.74 16.2311 14.9356 16.1089 15.0578L15.0822 16.0844C14.96 16.2067 14.7644 16.2311 14.6178 16.1333L13.1756 15.2044C12.9556 15.3267 12.7111 15.4244 12.4667 15.4978L12.1 17.1844C12.0511 17.3556 11.9044 17.4778 11.7333 17.4778H10.2667C10.0956 17.4778 9.94889 17.3556 9.9 17.1844L9.53333 15.5222C9.28889 15.4489 9.04444 15.3511 8.82444 15.2289L7.38222 16.1578C7.23556 16.2556 7.04 16.2311 6.91778 16.1089L5.89111 15.0822C5.76889 14.96 5.74444 14.7644 5.84222 14.6178L6.77111 13.1756C6.64889 12.9556 6.55111 12.7111 6.47778 12.4667L4.81556 12.1C4.64444 12.0511 4.52222 11.9044 4.52222 11.7333V10.2667C4.52222 10.0956 4.64444 9.94889 4.81556 9.9L6.47778 9.53333C6.55111 9.28889 6.64889 9.04444 6.77111 8.82444L5.86667 7.38222C5.76889 7.23556 5.79333 7.04 5.91556 6.91778L6.94222 5.89111C7.06444 5.76889 7.26 5.74444 7.40667 5.84222L8.84889 6.77111C9.06889 6.64889 9.31333 6.55111 9.55778 6.47778L9.92444 4.81556C9.97333 4.64444 10.12 4.52222 10.2911 4.52222H11.7578C11.9289 4.52222 12.0756 4.64444 12.1244 4.81556L12.4911 6.50222C12.7356 6.57556 12.9556 6.67333 13.2 6.79555L14.6422 5.86667C14.7889 5.76889 14.9844 5.79333 15.1067 5.91556L16.1333 6.94222C16.2556 7.06444 16.28 7.26 16.1822 7.40667L15.2533 8.84889C15.3756 9.06889 15.4733 9.31333 15.5467 9.53333L17.2333 9.9C17.4044 9.94889 17.5267 10.0956 17.5267 10.2667V11.7333H17.4778Z" fill="black"/>
</svg>
