<svg width="24" height="25" viewBox="0 0 24 25" fill="none" xmlns="http://www.w3.org/2000/svg">
<path d="M7.07013 7.10361C7.08649 7.12361 7.10104 7.13998 7.1174 7.15998C7.21558 7.27816 7.32104 7.40725 7.43558 7.54543C7.49195 7.61452 7.55195 7.68543 7.61195 7.75816C7.91558 8.12361 8.25922 8.53816 8.62104 8.97089C8.76467 9.14361 8.91195 9.31998 9.05922 9.49634C9.20649 9.6727 9.35558 9.85089 9.50286 10.0272C9.51195 10.0382 9.52104 10.0491 9.53013 10.06C9.5974 10.14 9.66286 10.22 9.73013 10.2982C9.74104 10.3109 9.75195 10.3254 9.76467 10.3382C9.8174 10.4 9.86831 10.4618 9.91922 10.5236C9.95195 10.5636 9.98467 10.6018 10.0174 10.6418C10.0265 10.6527 10.0356 10.6636 10.0447 10.6745C10.0647 10.7 10.0865 10.7236 10.1065 10.7491C10.1319 10.78 10.1574 10.8109 10.1829 10.8418C10.1938 10.8563 10.2065 10.8691 10.2174 10.8836C10.2483 10.92 10.2792 10.9582 10.3101 10.9945C10.3319 11.02 10.3519 11.0454 10.3738 11.0709C10.3992 11.1018 10.4247 11.1327 10.4501 11.1636C10.4719 11.1909 10.4956 11.2163 10.5174 11.2436C10.5283 11.2563 10.5392 11.2709 10.5519 11.2836C10.5865 11.3254 10.621 11.3672 10.6556 11.4072C10.6665 11.42 10.6774 11.4327 10.6883 11.4454C10.7083 11.4709 10.7301 11.4945 10.7501 11.5182C10.7719 11.5436 10.7919 11.5691 10.8138 11.5945C10.8247 11.6072 10.8338 11.6182 10.8447 11.6309C10.9719 11.7818 11.0901 11.9254 11.2029 12.0582C11.2083 12.0636 11.2138 12.0709 11.2192 12.0763C11.2538 12.1163 11.2847 12.1545 11.3174 12.1927C11.3356 12.2145 11.3538 12.2363 11.3701 12.2563C11.3774 12.2654 11.3865 12.2763 11.3938 12.2854C11.4483 12.3491 11.4974 12.4091 11.5465 12.4672C11.6065 12.5382 11.6629 12.6054 11.7119 12.6636C11.7265 12.6818 11.7392 12.6963 11.7519 12.7127L11.7538 12.7145C11.8065 12.7782 11.8538 12.8345 11.8919 12.88C11.8919 12.88 11.8919 12.88 11.8938 12.8818C11.9119 12.9036 11.9301 12.9236 11.9447 12.9418C11.9483 12.9454 11.9519 12.9472 11.9556 12.9509C11.9756 12.9654 12.0083 12.9672 12.0283 12.9509C12.0319 12.9472 12.0356 12.9454 12.0392 12.9418C12.0519 12.9272 12.0665 12.9091 12.0829 12.8909C12.0938 12.8763 12.1065 12.8618 12.1192 12.8472C12.1483 12.8127 12.181 12.7745 12.2156 12.7327C12.2283 12.7182 12.2392 12.7054 12.2501 12.6909C12.2538 12.6872 12.2556 12.6836 12.2592 12.68C12.2774 12.6582 12.2974 12.6345 12.3174 12.6109C12.3174 12.6091 12.3192 12.6091 12.3192 12.6091C12.3356 12.5891 12.3538 12.5673 12.3719 12.5454C12.3847 12.5291 12.3992 12.5127 12.4138 12.4945C12.4647 12.4327 12.5192 12.3691 12.5774 12.2982C12.5847 12.2891 12.5919 12.28 12.601 12.2709C12.6247 12.2418 12.6519 12.2109 12.6774 12.18C12.701 12.1527 12.7247 12.1236 12.7483 12.0945C12.8301 11.9963 12.9174 11.8927 13.0083 11.7836C13.0265 11.7636 13.0429 11.7418 13.061 11.7218C13.0665 11.7145 13.0738 11.7072 13.0792 11.7C13.1047 11.6691 13.1319 11.6382 13.1574 11.6054C13.1847 11.5727 13.2119 11.54 13.241 11.5054C13.2574 11.4854 13.2738 11.4672 13.2901 11.4472C13.2974 11.4382 13.3047 11.4309 13.3119 11.4218C13.3501 11.3745 13.3901 11.3272 13.4301 11.28C13.441 11.2672 13.4501 11.2563 13.461 11.2436C13.4738 11.2291 13.4865 11.2145 13.4974 11.2C13.5956 11.0836 13.6956 10.9636 13.7974 10.84C13.821 10.8109 13.8465 10.7818 13.8701 10.7527C13.8738 10.7491 13.8774 10.7436 13.881 10.74C13.9119 10.7018 13.9447 10.6636 13.9774 10.6254C14.0047 10.5945 14.0301 10.5618 14.0574 10.5309C14.1083 10.4709 14.1592 10.4091 14.2101 10.3472C14.2247 10.3291 14.2392 10.3109 14.2556 10.2927C14.321 10.2145 14.3865 10.1363 14.4519 10.0582C14.461 10.0491 14.4683 10.0382 14.4774 10.0291C14.6247 9.8527 14.7719 9.67452 14.921 9.49816C15.0683 9.32179 15.2156 9.14543 15.3592 8.9727C15.7192 8.53998 16.0647 8.12543 16.3683 7.75998C16.4283 7.68725 16.4883 7.61634 16.5447 7.54725C16.6592 7.40907 16.7647 7.27998 16.8629 7.16179C16.8792 7.14179 16.8919 7.12543 16.9083 7.10725C15.6101 5.92543 13.8847 5.20361 11.9919 5.20361C10.0938 5.20361 8.36831 5.92361 7.07013 7.10361Z" fill="white"/>
<path d="M14.0861 15.9927C13.9824 15.8982 13.8188 15.9254 13.7479 16.0472L12.6388 17.9745L12.3643 18.4491C12.3133 18.5363 12.2206 18.5909 12.1188 18.5909L11.9879 18.5909L11.8606 18.5909L11.857 18.5909C11.7552 18.5909 11.6606 18.5363 11.6097 18.4472L11.6079 18.4454L10.2261 16.0436C10.157 15.9218 9.99153 15.8963 9.88789 15.9891L8.85698 16.9091L7.42426 18.1891C8.67335 19.1909 10.2588 19.7909 11.9861 19.7909C13.7133 19.7909 15.2988 19.1909 16.5497 18.1872L15.9988 17.6945L14.0861 15.9927Z" fill="white"/>
<path d="M6.2864 11.8203C5.95186 11.2585 5.55913 10.5985 5.22822 10.0403C5.20458 10.0003 5.18095 9.9603 5.15731 9.92212C4.85367 10.7239 4.6864 11.593 4.6864 12.5003C4.6864 13.493 4.88458 14.4367 5.24458 15.2985L5.52277 14.9585L7.01731 13.1312C7.01913 13.1294 7.03186 13.1148 7.04822 13.093C7.0464 13.0912 7.04458 13.0894 7.04276 13.0858C6.99731 13.0148 6.68095 12.4839 6.2864 11.8203Z" fill="white"/>
<path d="M12 0.471069C5.37273 0.471069 -3.77346e-09 5.84016 -8.42863e-09 12.4638C-1.30838e-08 19.0874 5.37273 24.4565 12 24.4565C18.6273 24.4565 24 19.0874 24 12.4638C24 5.84016 18.6273 0.471069 12 0.471069ZM21.3818 18.7874L21.3764 18.7874L17.2364 18.7874C17.2309 18.7874 17.2236 18.7856 17.2182 18.7838C17.2164 18.7856 17.2164 18.7856 17.2145 18.7874L17.2127 18.7856C15.7945 19.9638 13.9727 20.6729 11.9855 20.6729C9.99818 20.6729 8.17636 19.9638 6.76 18.7856L6.75818 18.7856C6.75636 18.7838 6.75636 18.7838 6.75455 18.782C6.74909 18.7838 6.74364 18.7856 6.73636 18.7856L2.59636 18.7856L2.59091 18.7856C2.50909 18.7856 2.46545 18.6911 2.51636 18.6293L4.62 16.0565C4.09818 14.9802 3.80545 13.7729 3.80545 12.4965C3.80545 7.98198 7.46727 4.32198 11.9855 4.32198C16.5036 4.32198 20.1655 7.98198 20.1655 12.4965C20.1655 13.7711 19.8727 14.9783 19.3527 16.0547L20.1509 17.0293L21.4564 18.6256L21.46 18.6293C21.5073 18.6929 21.4636 18.7874 21.3818 18.7874Z" fill="white"/>
<path d="M18.7477 10.0384C18.415 10.5966 18.024 11.2566 17.6895 11.8184C17.2931 12.4838 16.9786 13.0129 16.935 13.0856C16.9331 13.0875 16.9313 13.0893 16.9295 13.0911L16.9568 13.1256C16.9586 13.1275 16.9586 13.1293 16.9604 13.1311L18.7295 15.2947C19.0877 14.4329 19.2859 13.4893 19.2859 12.4984C19.2859 11.5911 19.1186 10.7238 18.8168 9.92383C18.7931 9.96201 18.7713 10.0002 18.7477 10.0384Z" fill="white"/>
</svg>
